<?xml version="1.0" standalone="no"?><!DOCTYPE svg PUBLIC "-//W3C//DTD SVG 1.1//EN" "http://www.w3.org/Graphics/SVG/1.1/DTD/svg11.dtd"><svg t="1783993176720" class="icon" viewBox="0 0 1228 1024" version="1.1" xmlns="http://www.w3.org/2000/svg" p-id="17404" xmlns:xlink="http://www.w3.org/1999/xlink" width="76.75" height="64"><path d="M7.109486 155.706514V845.531429c0 64.629029 12.873143 76.741486 75.044571 76.741485h845.238857c61.322971 0 75.015314-12.112457 75.015315-76.741485V155.560229c0-63.019886-11.293257-76.741486-75.015315-76.741486H81.334857C20.041143 79.608686 7.168 90.141257 7.168 155.560229l-0.058514 0.146285z m877.568 587.190857H124.1088c83.090286-124.401371 156.525714-332.010057 268.580571-332.010057 112.171886 0 159.744 167.233829 215.391086 226.157715 0 0 29.023086-98.596571 108.836572-98.596572 79.842743 0 166.239086 203.629714 167.760457 204.448914z m-223.407543-433.824914c0.468114-18.139429 6.231771-35.693714 16.618057-50.556343a92.16 92.16 0 0 1 141.194971-11.410285 92.101486 92.101486 0 0 1 18.900115 100.117942 92.072229 92.072229 0 0 1-84.757943 56.378515 93.213257 93.213257 0 0 1-65.594514-28.116115 93.505829 93.505829 0 0 1-26.331429-66.413714zM473.380571 32.768L328.148114 4.564114c-48.362057-9.684114-67.730286-5.558857-79.0528 28.291657l224.314515-0.117028h-0.029258z m685.728915 134.056229l-113.751772-21.796572v701.293714a129.960229 129.960229 0 0 1-26.624 93.739886 120.4224 120.4224 0 0 1-89.4976 26.682514h-68.578743l145.993143 28.291658c60.445257 12.112457 74.986057 2.428343 87.127772-61.410743l124.7232-677.800229c10.503314-61.381486 1.6384-77.531429-59.684572-88.853943l0.263315-0.175543z" fill="#6E8DFB" p-id="17405"></path></svg>